<mxfile host="app.diagrams.net" modified="2024-05-01T19:02:17.148Z" agent="Mozilla/5.0 (X11; Linux x86_64; rv:125.0) Gecko/20100101 Firefox/125.0" etag="yyrSc6k-yubNVUl6CbJe" version="24.3.1" type="device">
  <diagram name="Page-1" id="o88a3t7a5GBlfN1_9MtQ">
    <mxGraphModel dx="1018" dy="702" grid="1" gridSize="10" guides="1" tooltips="1" connect="1" arrows="1" fold="1" page="1" pageScale="1" pageWidth="850" pageHeight="1100" math="0" shadow="0">
      <root>
        <mxCell id="0" />
        <mxCell id="1" parent="0" />
        <mxCell id="OYKhvysy2fvlji-S3JPo-5" style="edgeStyle=orthogonalEdgeStyle;rounded=0;orthogonalLoop=1;jettySize=auto;html=1;" edge="1" parent="1" source="OYKhvysy2fvlji-S3JPo-1" target="OYKhvysy2fvlji-S3JPo-4">
          <mxGeometry relative="1" as="geometry" />
        </mxCell>
        <mxCell id="OYKhvysy2fvlji-S3JPo-1" value="ERBSPACE&lt;br&gt;(tonotopic frequency)" style="rounded=0;whiteSpace=wrap;html=1;" vertex="1" parent="1">
          <mxGeometry x="220" y="270" width="120" height="60" as="geometry" />
        </mxCell>
        <mxCell id="OYKhvysy2fvlji-S3JPo-3" style="edgeStyle=orthogonalEdgeStyle;rounded=0;orthogonalLoop=1;jettySize=auto;html=1;" edge="1" parent="1" source="OYKhvysy2fvlji-S3JPo-2" target="OYKhvysy2fvlji-S3JPo-1">
          <mxGeometry relative="1" as="geometry" />
        </mxCell>
        <mxCell id="OYKhvysy2fvlji-S3JPo-2" value="" style="sketch=0;pointerEvents=1;shadow=0;dashed=0;html=1;strokeColor=none;fillColor=#505050;labelPosition=center;verticalLabelPosition=bottom;verticalAlign=top;outlineConnect=0;align=center;shape=mxgraph.office.concepts.sound_file;" vertex="1" parent="1">
          <mxGeometry x="110" y="275" width="40" height="50" as="geometry" />
        </mxCell>
        <mxCell id="OYKhvysy2fvlji-S3JPo-8" style="edgeStyle=orthogonalEdgeStyle;rounded=0;orthogonalLoop=1;jettySize=auto;html=1;" edge="1" parent="1" source="OYKhvysy2fvlji-S3JPo-4" target="OYKhvysy2fvlji-S3JPo-7">
          <mxGeometry relative="1" as="geometry" />
        </mxCell>
        <mxCell id="OYKhvysy2fvlji-S3JPo-4" value="&lt;div&gt;GAMMATONE&lt;/div&gt;&lt;div&gt;(approximate)&lt;br&gt;&lt;/div&gt;" style="rounded=0;whiteSpace=wrap;html=1;" vertex="1" parent="1">
          <mxGeometry x="390" y="270" width="120" height="60" as="geometry" />
        </mxCell>
        <mxCell id="OYKhvysy2fvlji-S3JPo-10" style="edgeStyle=orthogonalEdgeStyle;rounded=0;orthogonalLoop=1;jettySize=auto;html=1;" edge="1" parent="1" source="OYKhvysy2fvlji-S3JPo-7" target="OYKhvysy2fvlji-S3JPo-9">
          <mxGeometry relative="1" as="geometry" />
        </mxCell>
        <mxCell id="OYKhvysy2fvlji-S3JPo-7" value="&lt;div&gt;COMPRESSION&lt;/div&gt;&lt;div&gt;(OHC/active hearing)&lt;br&gt;&lt;/div&gt;" style="rounded=0;whiteSpace=wrap;html=1;" vertex="1" parent="1">
          <mxGeometry x="580" y="270" width="120" height="60" as="geometry" />
        </mxCell>
        <mxCell id="OYKhvysy2fvlji-S3JPo-9" value="&lt;div&gt;REFRACTORY&lt;/div&gt;&lt;div&gt;(no negative spikes)&lt;br&gt;&lt;/div&gt;" style="rounded=0;whiteSpace=wrap;html=1;" vertex="1" parent="1">
          <mxGeometry x="750" y="270" width="120" height="60" as="geometry" />
        </mxCell>
        <mxCell id="OYKhvysy2fvlji-S3JPo-13" style="edgeStyle=orthogonalEdgeStyle;rounded=0;orthogonalLoop=1;jettySize=auto;html=1;" edge="1" parent="1" source="OYKhvysy2fvlji-S3JPo-11" target="OYKhvysy2fvlji-S3JPo-12">
          <mxGeometry relative="1" as="geometry" />
        </mxCell>
        <mxCell id="OYKhvysy2fvlji-S3JPo-11" value="" style="sketch=0;pointerEvents=1;shadow=0;dashed=0;html=1;strokeColor=none;fillColor=#505050;labelPosition=center;verticalLabelPosition=bottom;verticalAlign=top;outlineConnect=0;align=center;shape=mxgraph.office.concepts.sound_file;" vertex="1" parent="1">
          <mxGeometry x="200" y="120" width="40" height="50" as="geometry" />
        </mxCell>
        <mxCell id="OYKhvysy2fvlji-S3JPo-16" style="edgeStyle=orthogonalEdgeStyle;rounded=0;orthogonalLoop=1;jettySize=auto;html=1;" edge="1" parent="1" source="OYKhvysy2fvlji-S3JPo-12" target="OYKhvysy2fvlji-S3JPo-15">
          <mxGeometry relative="1" as="geometry" />
        </mxCell>
        <mxCell id="OYKhvysy2fvlji-S3JPo-17" style="edgeStyle=orthogonalEdgeStyle;rounded=0;orthogonalLoop=1;jettySize=auto;html=1;" edge="1" parent="1" source="OYKhvysy2fvlji-S3JPo-12" target="OYKhvysy2fvlji-S3JPo-14">
          <mxGeometry relative="1" as="geometry" />
        </mxCell>
        <mxCell id="OYKhvysy2fvlji-S3JPo-12" value="HRTF" style="rounded=0;whiteSpace=wrap;html=1;" vertex="1" parent="1">
          <mxGeometry x="340" y="115" width="120" height="60" as="geometry" />
        </mxCell>
        <mxCell id="OYKhvysy2fvlji-S3JPo-21" style="edgeStyle=orthogonalEdgeStyle;rounded=0;orthogonalLoop=1;jettySize=auto;html=1;" edge="1" parent="1" source="OYKhvysy2fvlji-S3JPo-14" target="OYKhvysy2fvlji-S3JPo-18">
          <mxGeometry relative="1" as="geometry" />
        </mxCell>
        <mxCell id="OYKhvysy2fvlji-S3JPo-14" value="" style="pointerEvents=1;verticalLabelPosition=bottom;shadow=0;dashed=0;align=center;html=1;verticalAlign=top;shape=mxgraph.electrical.waveforms.sine_wave;" vertex="1" parent="1">
          <mxGeometry x="550" y="150" width="90" height="66.18" as="geometry" />
        </mxCell>
        <mxCell id="OYKhvysy2fvlji-S3JPo-20" style="edgeStyle=orthogonalEdgeStyle;rounded=0;orthogonalLoop=1;jettySize=auto;html=1;" edge="1" parent="1" source="OYKhvysy2fvlji-S3JPo-15" target="OYKhvysy2fvlji-S3JPo-19">
          <mxGeometry relative="1" as="geometry" />
        </mxCell>
        <mxCell id="OYKhvysy2fvlji-S3JPo-15" value="" style="pointerEvents=1;verticalLabelPosition=bottom;shadow=0;dashed=0;align=center;html=1;verticalAlign=top;shape=mxgraph.electrical.waveforms.sine_wave;" vertex="1" parent="1">
          <mxGeometry x="550" y="59.99999999999999" width="90" height="66.18" as="geometry" />
        </mxCell>
        <mxCell id="OYKhvysy2fvlji-S3JPo-18" value="" style="sketch=0;pointerEvents=1;shadow=0;dashed=0;html=1;strokeColor=none;fillColor=#505050;labelPosition=center;verticalLabelPosition=bottom;verticalAlign=top;outlineConnect=0;align=center;shape=mxgraph.office.concepts.sound_file;" vertex="1" parent="1">
          <mxGeometry x="750" y="158.09" width="40" height="50" as="geometry" />
        </mxCell>
        <mxCell id="OYKhvysy2fvlji-S3JPo-19" value="" style="sketch=0;pointerEvents=1;shadow=0;dashed=0;html=1;strokeColor=none;fillColor=#505050;labelPosition=center;verticalLabelPosition=bottom;verticalAlign=top;outlineConnect=0;align=center;shape=mxgraph.office.concepts.sound_file;" vertex="1" parent="1">
          <mxGeometry x="750" y="68.09" width="40" height="50" as="geometry" />
        </mxCell>
        <mxCell id="OYKhvysy2fvlji-S3JPo-22" value="" style="shape=singleArrow;whiteSpace=wrap;html=1;arrowWidth=0.4;arrowSize=0.4;rounded=0;" vertex="1" parent="1">
          <mxGeometry x="890" y="270" width="80" height="60" as="geometry" />
        </mxCell>
      </root>
    </mxGraphModel>
  </diagram>
</mxfile>
